<?xml version="1.0" standalone="no"?>
<!DOCTYPE svg PUBLIC "-//W3C//DTD SVG 20010904//EN"
 "http://www.w3.org/TR/2001/REC-SVG-20010904/DTD/svg10.dtd">
<svg version="1.0" xmlns="http://www.w3.org/2000/svg"
 width="375.000000pt" height="196.000000pt" viewBox="0 0 375.000000 196.000000"
 preserveAspectRatio="xMidYMid meet">

<g transform="translate(0.000000,196.000000) scale(0.100000,-0.100000)"
fill="#000000" stroke="none">
<path d="M1583 1860 c-67 -40 -62 -146 8 -189 18 -11 36 -18 39 -16 11 7 11
95 0 95 -5 0 -10 -5 -10 -10 0 -6 -11 -3 -25 7 -24 17 -33 34 -17 32 4 -1 19
-1 35 0 24 1 27 5 27 36 0 22 -4 33 -12 31 -7 -1 -10 -1 -5 1 4 3 5 8 2 13 -3
4 11 7 29 7 19 -1 33 -4 30 -8 -2 -4 2 -10 8 -13 7 -3 4 -4 -7 -1 -18 4 -21 0
-23 -30 -3 -34 -1 -35 32 -35 19 0 38 -4 41 -10 3 -5 -3 -10 -14 -10 -12 0
-21 -4 -21 -10 0 -5 -4 -10 -10 -10 -5 0 -10 8 -10 18 -1 16 -1 16 -11 -1 -10
-17 -8 -92 3 -102 10 -11 66 36 82 70 22 46 15 78 -29 122 -39 39 -91 44 -142
13z m31 -42 c-4 -5 -9 -7 -12 -4 -3 3 -12 0 -21 -7 -14 -10 -14 -10 -4 4 13
16 46 23 37 7z m107 -101 c-6 -8 -9 -16 -6 -19 3 -2 -2 -5 -10 -5 -8 0 -12 4
-9 8 2 4 1 9 -3 12 -5 2 -3 2 4 1 7 -2 15 1 18 6 4 6 9 10 12 10 3 0 0 -6 -6
-13z"/>
<path d="M110 1775 l0 -95 60 0 c53 0 60 2 60 20 0 16 -7 20 -35 20 -28 0 -35
4 -35 20 0 13 7 20 20 20 12 0 20 7 20 16 0 9 -9 18 -20 21 -30 8 -24 23 10
23 25 0 30 4 30 25 0 24 -3 25 -55 25 l-55 0 0 -95z"/>
<path d="M832 1848 c2 -13 10 -23 18 -23 8 0 16 10 18 23 3 17 -2 22 -18 22
-16 0 -21 -5 -18 -22z"/>
<path d="M253 1794 c-3 -8 2 -23 10 -32 15 -15 15 -18 -3 -38 -19 -19 -19 -22
-5 -34 13 -11 19 -10 35 5 19 17 21 17 39 1 21 -19 41 -14 41 8 0 8 -7 19 -15
26 -14 12 -14 15 2 32 15 17 15 20 1 34 -13 13 -19 14 -36 3 -17 -11 -24 -11
-34 -1 -16 16 -27 15 -35 -4z"/>
<path d="M390 1745 l0 -66 63 3 62 3 3 63 3 62 -66 0 -65 0 0 -65z m80 0 c0
-24 -5 -35 -15 -35 -10 0 -15 11 -15 35 0 24 5 35 15 35 10 0 15 -11 15 -35z"/>
<path d="M540 1744 c0 -62 1 -65 23 -62 19 3 22 9 22 47 0 45 19 67 31 37 3
-9 15 -16 25 -16 14 0 19 7 19 30 l0 30 -60 0 -60 0 0 -66z"/>
<path d="M680 1745 l0 -66 62 3 c52 3 63 6 66 22 4 17 0 18 -36 12 -31 -5 -41
-2 -46 10 -12 32 -6 54 14 54 11 0 20 -4 20 -10 0 -5 12 -10 26 -10 21 0 25 4
22 23 -3 20 -9 22 -65 25 l-63 3 0 -66z"/>
<path d="M830 1745 c0 -58 2 -65 20 -65 18 0 20 7 20 65 0 58 -2 65 -20 65
-18 0 -20 -7 -20 -65z"/>
<path d="M890 1775 c0 -30 3 -35 23 -35 36 0 67 -12 61 -22 -3 -5 -23 -7 -45
-3 -35 6 -39 5 -39 -14 0 -19 6 -21 66 -21 l65 0 -3 38 c-3 35 -5 37 -40 40
-21 2 -38 8 -38 13 0 5 17 9 37 7 29 -2 38 1 41 15 3 15 -5 17 -62 17 l-66 0
0 -35z"/>
<path d="M1040 1744 c0 -57 2 -64 20 -64 17 0 20 7 20 40 0 22 5 40 10 40 6 0
10 -16 10 -35 0 -24 5 -35 15 -35 10 0 15 10 15 34 0 19 5 38 10 41 6 4 10
-12 10 -39 0 -39 3 -46 20 -46 18 0 20 7 20 64 l0 65 -75 0 -75 0 0 -65z"/>
<path d="M1210 1745 l0 -65 65 0 65 0 0 66 c0 62 -1 65 -22 62 -20 -3 -23 -10
-26 -51 -3 -51 -24 -62 -30 -16 -6 55 -13 69 -32 69 -18 0 -20 -7 -20 -65z"/>
<path d="M1360 1775 c0 -30 3 -35 24 -35 32 0 56 -10 56 -22 0 -6 -16 -7 -40
-3 -36 6 -40 5 -40 -14 0 -19 6 -21 59 -21 56 0 59 1 64 27 8 40 -2 53 -38 53
-19 0 -37 5 -41 12 -5 8 4 9 34 4 38 -6 42 -4 42 14 0 18 -7 20 -60 20 l-60 0
0 -35z"/>
</g>
</svg>
