<svg xmlns="http://www.w3.org/2000/svg" data-name="Layer 1" viewBox="0 0 69.76 112.5" x="0px" y="0px"><title>02</title><path d="M81.19,34a5.42,5.42,0,0,0-10.5-1.1h-.22A21,21,0,0,0,57.21,18.74a5.42,5.42,0,0,0-2.06-10,5.43,5.43,0,0,0-10.28,0,5.42,5.42,0,0,0-1.68,10.26l-.95.24a.79.79,0,0,0-.22.05A22.8,22.8,0,0,0,29.28,32.78,5.42,5.42,0,0,0,18.81,34a5.43,5.43,0,0,0,0,10.28,5.42,5.42,0,0,0,10.46,1.21A20.69,20.69,0,0,0,43.75,59.56V80.81a5.42,5.42,0,0,0,1.1,10.5,5.43,5.43,0,0,0,10.28,0,5.42,5.42,0,0,0,1.1-10.5V59.57a21.67,21.67,0,0,0,14.21-14.2h.23a5.42,5.42,0,0,0,10.5-1.1,5.43,5.43,0,0,0,0-10.28Zm-12.37-1.1H66.47A17.31,17.31,0,0,0,56.25,22.46V20.1C62,21.74,66.8,26.61,68.82,32.88ZM56.25,24.15a15.73,15.73,0,0,1,8.53,8.73H56.25ZM42.53,20.74c.22,0,.56-.13,1.11-.27l.12,0v2c-4.52,1.44-8.31,5.2-10.52,10.44H30.91A21.21,21.21,0,0,1,42.53,20.74Zm1.23,3.37v8.77H35C36.92,28.57,40.06,25.45,43.75,24.1ZM30.9,45.37h2.3c1.79,5.17,6.48,8.68,10.56,10.36v2.18A19.12,19.12,0,0,1,30.9,45.37ZM43.75,54c-3.46-1.56-7.24-4.49-8.89-8.65h8.89Zm12.49,3.91V55.74A19.42,19.42,0,0,0,66.47,45.37H68.8A20.1,20.1,0,0,1,56.25,57.93Zm0-3.91V45.37h8.51A17.91,17.91,0,0,1,56.25,54Zm24-11.14a.79.79,0,0,0-.62.76,3.85,3.85,0,0,1-7.6.77.79.79,0,0,0-.77-.62H55.46a.79.79,0,0,0-.79.79V81.4a.79.79,0,0,0,.62.77,3.85,3.85,0,0,1-.77,7.6.79.79,0,0,0-.76.62,3.85,3.85,0,0,1-7.52,0,.79.79,0,0,0-.76-.62,3.85,3.85,0,0,1-.77-7.6.79.79,0,0,0,.62-.77V44.58a.79.79,0,0,0-.79-.79H28.72a.79.79,0,0,0-.77.62,3.85,3.85,0,0,1-7.6-.77.79.79,0,0,0-.62-.76,3.85,3.85,0,0,1,0-7.52.79.79,0,0,0,.62-.76,3.85,3.85,0,0,1,7.6-.77.79.79,0,0,0,.77.62H44.54a.79.79,0,0,0,.79-.79V18.6a.79.79,0,0,0-.62-.77,3.85,3.85,0,0,1,.77-7.6.79.79,0,0,0,.76-.62,3.85,3.85,0,0,1,7.52,0,.79.79,0,0,0,.76.62,3.85,3.85,0,0,1,.77,7.6.79.79,0,0,0-.62.77v.47h0v14.6a.79.79,0,0,0,.79.79H71.28a.79.79,0,0,0,.77-.62,3.85,3.85,0,0,1,7.6.77.79.79,0,0,0,.62.76,3.85,3.85,0,0,1,0,7.52Z" transform="translate(-15.12 -5)"/><text x="0" y="105" fill="#000000" font-size="5px" font-weight="bold" font-family="'Helvetica Neue', Helvetica, Arial-Unicode, Arial, Sans-serif">Created by parkjisun</text><text x="0" y="110" fill="#000000" font-size="5px" font-weight="bold" font-family="'Helvetica Neue', Helvetica, Arial-Unicode, Arial, Sans-serif">from the Noun Project</text></svg>